HIERARCHY
ROOT Hips
{
	OFFSET 0.000000 0.000000 0.000000
	CHANNELS 6 Xposition Yposition Zposition Zrotation Yrotation Xrotation 
	JOINT LHipJoint
	{
		OFFSET 0.000000 0.000000 0.000000
		CHANNELS 3 Zrotation Yrotation Xrotation
		JOINT LeftUpLeg
		{
			OFFSET 1.363060 -1.794630 0.839290
			CHANNELS 3 Zrotation Yrotation Xrotation
			JOINT LeftLeg
			{
				OFFSET 2.448110 -6.726130 0.000000
				CHANNELS 3 Zrotation Yrotation Xrotation
				JOINT LeftFoot
				{
					OFFSET 2.562200 -7.039590 0.000000
					CHANNELS 3 Zrotation Yrotation Xrotation
					JOINT LeftToeBase
					{
						OFFSET 0.157640 -0.433110 2.322550
						CHANNELS 3 Zrotation Yrotation Xrotation
						End Site
						{
							OFFSET 0.000000 0.000000 0.000000
						}
					}
				}
			}
		}
	}
	JOINT RHipJoint
	{
		OFFSET 0.000000 0.000000 0.000000
		CHANNELS 3 Zrotation Yrotation Xrotation
		JOINT RightUpLeg
		{
			OFFSET -1.305520 -1.794630 0.839290
			CHANNELS 3 Zrotation Yrotation Xrotation
			JOINT RightLeg
			{
				OFFSET -2.542530 -6.985550 0.000000
				CHANNELS 3 Zrotation Yrotation Xrotation
				JOINT RightFoot
				{
					OFFSET -2.568260 -7.056230 0.000000
					CHANNELS 3 Zrotation Yrotation Xrotation
					JOINT RightToeBase
					{
						OFFSET -0.164730 -0.452590 2.363150
						CHANNELS 3 Zrotation Yrotation Xrotation
						End Site
						{
							OFFSET 0.000000 0.000000 0.000000
						}
					}
				}
			}
		}
	}
	JOINT LowerBack
	{
		OFFSET 0.000000 0.000000 0.000000
		CHANNELS 3 Zrotation Yrotation Xrotation
		JOINT Spine
		{
			OFFSET 0.028270 2.035590 -0.193380
			CHANNELS 3 Zrotation Yrotation Xrotation
			JOINT Spine1
			{
				OFFSET 0.056720 2.048850 -0.042750
				CHANNELS 3 Zrotation Yrotation Xrotation
				JOINT Neck
				{
					OFFSET 0.000000 0.000000 0.000000
					CHANNELS 3 Zrotation Yrotation Xrotation
					JOINT Neck1
					{
						OFFSET -0.054170 1.746240 0.172020
						CHANNELS 3 Zrotation Yrotation Xrotation
						JOINT Head
						{
							OFFSET 0.104070 1.761360 -0.123970
							CHANNELS 3 Zrotation Yrotation Xrotation
							End Site
							{
								OFFSET 0.000000 0.000000 0.000000
							}
						}
					}
				}
				JOINT LeftShoulder
				{
					OFFSET 0.000000 0.000000 0.000000
					CHANNELS 3 Zrotation Yrotation Xrotation
					JOINT LeftArm
					{
						OFFSET 3.362410 1.200890 -0.311210
						CHANNELS 3 Zrotation Yrotation Xrotation
						JOINT LeftForeArm
						{
							OFFSET 4.983000 -0.000000 -0.000000
							CHANNELS 3 Zrotation Yrotation Xrotation
							JOINT LeftHand
							{
								OFFSET 3.483560 -0.000000 -0.000000
								CHANNELS 3 Zrotation Yrotation Xrotation
								JOINT LeftFingerBase
								{
									OFFSET 0.000000 0.000000 0.000000
									CHANNELS 3 Zrotation Yrotation Xrotation
									JOINT LeftHandIndex1
									{
										OFFSET 0.715260 -0.000000 -0.000000
										CHANNELS 3 Zrotation Yrotation Xrotation
										End Site
										{
											OFFSET 0.000000 0.000000 0.000000
										}
									}
								}
								JOINT LThumb
								{
									OFFSET 0.000000 0.000000 0.000000
									CHANNELS 3 Zrotation Yrotation Xrotation
									End Site
									{
										OFFSET 0.000000 0.000000 0.000000
									}
								}
							}
						}
					}
				}
				JOINT RightShoulder
				{
					OFFSET 0.000000 0.000000 0.000000
					CHANNELS 3 Zrotation Yrotation Xrotation
					JOINT RightArm
					{
						OFFSET -3.136600 1.374050 -0.404650
						CHANNELS 3 Zrotation Yrotation Xrotation
						JOINT RightForeArm
						{
							OFFSET -5.241900 -0.000000 -0.000000
							CHANNELS 3 Zrotation Yrotation Xrotation
							JOINT RightHand
							{
								OFFSET -3.444170 -0.000000 -0.000000
								CHANNELS 3 Zrotation Yrotation Xrotation
								JOINT RightFingerBase
								{
									OFFSET 0.000000 0.000000 0.000000
									CHANNELS 3 Zrotation Yrotation Xrotation
									JOINT RightHandIndex1
									{
										OFFSET -0.622530 -0.000000 -0.000000
										CHANNELS 3 Zrotation Yrotation Xrotation
										End Site
										{
											OFFSET 0.000000 0.000000 0.000000
										}
									}
								}
								JOINT RThumb
								{
									OFFSET 0.000000 0.000000 0.000000
									CHANNELS 3 Zrotation Yrotation Xrotation
									End Site
									{
										OFFSET 0.000000 0.000000 0.000000
									}
								}
							}
						}
					}
				}
			}
		}
	}
}
MOTION
Frames: 6
Frame Time: 0.008333
17.805907 17.410222 19.896055 170.370319 -0.637199 -168.041854 10.838394 1.523109 -1.825766 -6.210116 -21.160549 -66.115260 2.406049 17.995950 39.829334 0.901701 1.920860 -5.370935 2.630200 -10.070900 -29.206800 -13.569156 -3.869160 -3.386340 29.963661 11.723895 2.241897 -1.509940 -7.480648 26.270135 -3.588590 2.244892 -32.060794 -2.553700 9.934800 -28.765900 -3.510583 -0.884553 -19.033356 1.428024 -0.729976 -3.850565 -1.103523 -1.086194 16.436969 -9.473159 1.556483 -3.448850 5.536505 0.564846 27.954820 0.335200 0.960800 6.284100 15.895382 -0.255378 1.182871 -105.856240 0.661621 17.775323 11.958350 -13.565493 -1.812532 -1.663629 1.060146 6.057711 20.055018 -12.136811 -5.121300 -7.125000 0.000000 0.000000 -3.785500 16.102100 2.592800 -11.051842 0.578121 0.473646 96.198791 -3.263197 10.186012 -15.630023 26.999184 -4.844266 0.595383 3.778991 -2.340458 -14.656785 -49.015179 12.360000 7.125000 0.000000 0.000000 63.962300 -76.946700 -51.404900 
17.767900 17.398755 19.817748 170.346578 -0.500602 -168.026595 10.836479 1.517961 -1.814564 -6.118573 -21.188402 -65.861084 2.285563 17.842325 39.352031 0.953393 2.165596 -5.075949 2.578900 -9.980000 -28.912100 -13.550281 -3.880487 -3.401204 29.779263 11.695992 2.400075 -1.559772 -7.504631 26.426347 -3.645113 2.651809 -32.193808 -2.410600 9.673400 -27.925500 -3.431218 -0.785870 -19.255437 1.398298 -0.616665 -3.836611 -1.209784 -1.028966 16.570372 -9.294896 1.518219 -3.416894 5.473150 0.495312 28.113636 0.277700 0.935500 6.320400 15.918377 -0.237962 1.189800 -105.812485 0.766645 17.999733 11.993884 -13.636841 -1.830694 -1.656944 1.046652 5.879731 19.952001 -12.148224 -5.093800 -7.125000 0.000000 0.000000 -3.864300 16.108500 2.646500 -11.085941 0.570154 0.471271 96.320936 -3.350266 10.261669 -16.072288 27.610374 -5.090926 0.511964 4.054202 -1.642354 -14.082443 -54.964274 12.671300 7.125000 0.000000 0.000000 91.611500 -77.133800 -78.455100 
17.730986 17.385212 19.741954 170.333960 -0.431488 -168.059554 10.837019 1.516911 -1.797481 -6.126397 -21.216448 -65.624163 2.186994 17.700889 38.933113 0.978567 2.239390 -4.598721 2.591300 -10.002100 -28.983400 -13.538330 -3.894883 -3.420118 29.668305 11.661214 2.635685 -1.595961 -7.506941 26.535808 -3.645179 2.823216 -32.112990 -2.460800 9.766300 -28.223100 -3.348816 -0.727914 -19.311694 1.380446 -0.562032 -3.832519 -1.287547 -0.990858 16.596641 -9.336730 1.563549 -3.404381 5.687817 0.458884 28.252917 0.359100 0.927500 6.351400 15.929082 -0.238912 1.193701 -105.821481 0.891404 18.078967 12.046717 -13.737581 -1.856450 -1.639915 1.040321 5.854835 19.796974 -12.192210 -5.065000 -7.125000 0.000000 0.000000 -3.985500 16.082100 2.732200 -11.106975 0.547643 0.469765 96.421149 -3.416762 10.218738 -16.215483 27.788274 -5.149959 0.421011 4.106907 -1.233967 -12.284438 -56.647167 11.201500 7.125000 0.000000 0.000000 84.234000 76.201900 98.202600 
17.694180 17.370578 19.668343 170.413554 -0.435200 -168.075521 10.840091 1.516635 -1.781732 -6.079010 -21.233803 -65.505111 2.122464 17.603306 38.656420 1.003680 2.295595 -4.047774 2.731000 -10.246200 -29.777800 -13.538169 -3.916928 -3.437468 29.698003 11.608964 2.939309 -1.602577 -7.474730 26.539526 -3.600429 2.670493 -31.896984 -2.643200 10.093700 -29.280600 -3.148516 -0.674705 -19.297008 1.388353 -0.561408 -3.850244 -1.370124 -0.963025 16.513926 -9.498102 1.660969 -3.293973 5.894438 0.488959 28.275089 0.462700 0.938500 6.326300 15.933106 -0.244250 1.197917 -105.876276 1.078914 18.233242 12.069464 -13.775558 -1.864176 -1.667024 1.003386 5.810491 19.994919 -11.911723 -4.998500 -7.125000 0.000000 0.000000 -3.819900 16.400400 2.591800 -11.121001 0.517898 0.468847 96.476741 -3.471771 10.764704 -16.232817 27.806980 -5.155494 0.315213 4.089907 -2.805420 -12.188540 -56.093245 11.059300 7.125000 0.000000 0.000000 95.815600 -76.245700 -81.896300 
17.655737 17.356270 19.597353 170.571238 -0.494307 -167.999700 10.837910 1.514479 -1.775199 -5.893246 -21.278569 -65.518198 2.086201 17.553121 38.503603 1.023100 2.347897 -3.740227 2.730200 -10.245000 -29.773700 -13.541117 -3.935891 -3.446063 29.747925 11.489916 3.034219 -1.637227 -7.513608 26.704948 -3.583254 2.712507 -31.796761 -2.826100 10.408100 -30.308500 -2.895333 -0.672323 -19.358324 1.427684 -0.643276 -3.859071 -1.442204 -0.979380 16.536631 -9.534804 1.670210 -3.295927 5.839850 0.529917 28.231809 0.457000 0.950700 6.312300 15.925361 -0.234855 1.198013 -105.964563 1.111393 18.262593 12.066411 -13.756970 -1.857298 -1.694000 0.961901 5.718992 20.173578 -11.564022 -4.897000 -7.125000 0.000000 0.000000 -3.665300 16.796000 2.454900 -11.106329 0.515270 0.468045 96.384491 -3.363945 10.502601 -16.063522 27.575058 -5.071208 0.496922 3.852264 -2.296433 -13.472853 -51.073077 11.623600 7.125000 0.000000 0.000000 73.501800 -76.954800 -60.281600 
17.621443 17.349608 19.524289 170.560605 -0.410899 -167.916096 10.826186 1.518766 -1.759856 -6.000323 -21.148813 -65.389952 2.029152 17.460999 38.237285 1.021571 2.292605 -3.476703 2.611300 -10.037500 -29.098100 -13.525990 -3.952156 -3.462105 29.531711 11.269377 2.967947 -1.713537 -7.610580 27.049077 -3.613969 2.985672 -31.876792 -3.048300 10.772900 -31.517700 -2.919424 -0.703460 -19.430286 1.462282 -0.684230 -3.857202 -1.369198 -1.006930 16.595119 -9.481434 1.617337 -3.356280 5.594014 0.558237 28.286674 0.368700 0.952300 6.350900 15.925968 -0.210798 1.200583 -106.099582 1.092640 18.113882 12.067590 -13.760398 -1.860690 -1.670420 0.982423 5.752212 19.966831 -11.750611 -4.922100 -7.125000 0.000000 0.000000 -3.831800 16.594800 2.583700 -11.103934 0.542268 0.464466 96.302111 -3.336280 10.783803 -16.272841 27.854099 -5.195739 0.530492 3.928671 -2.361289 -14.547764 -52.462243 12.766100 7.125000 0.000000 0.000000 79.885500 -77.511300 -67.061000 
